<?xml version="1.0" standalone="no"?>
<!DOCTYPE svg PUBLIC "-//W3C//DTD SVG 20010904//EN"
 "http://www.w3.org/TR/2001/REC-SVG-20010904/DTD/svg10.dtd">
<svg version="1.0" xmlns="http://www.w3.org/2000/svg"
 width="30.000000pt" height="30.000000pt" viewBox="0 0 30.000000 30.000000"
 preserveAspectRatio="xMidYMid meet">

<g transform="translate(0.000000,30.000000) scale(0.100000,-0.100000)"
fill="#000000" stroke="none">
<path d="M15 238 c-2 -7 -5 -48 -7 -91 -3 -66 -1 -77 13 -77 9 0 22 -7 29 -15
16 -19 34 -19 50 0 17 21 89 19 112 -2 16 -14 22 -15 36 -5 9 7 25 15 35 19
11 3 16 12 13 20 -3 8 -6 23 -6 34 0 14 -7 19 -30 19 -25 0 -30 4 -30 25 0 19
5 25 21 25 11 0 17 5 14 10 -3 6 -23 10 -44 10 -30 0 -40 4 -44 20 -5 18 -14
20 -81 20 -53 0 -78 -4 -81 -12z m109 -34 c31 -30 9 -84 -34 -84 -24 0 -50 26
-50 50 0 24 26 50 50 50 10 0 26 -7 34 -16z m-34 -129 c0 -8 -7 -15 -15 -15
-8 0 -15 7 -15 15 0 8 7 15 15 15 8 0 15 -7 15 -15z m160 0 c0 -8 -7 -15 -15
-15 -8 0 -15 7 -15 15 0 8 7 15 15 15 8 0 15 -7 15 -15z"/>
<path d="M80 186 c0 -23 26 -43 39 -30 3 4 0 9 -6 11 -7 3 -13 13 -13 24 0 10
-4 19 -10 19 -5 0 -10 -11 -10 -24z"/>
</g>
</svg>
